<svg xmlns="http://www.w3.org/2000/svg" width="32" height="32" id="maintenance"><g color="#000" font-family="sans-serif" font-weight="400"><path style="line-height:normal;text-indent:0;text-align:start;text-decoration-line:none;text-decoration-style:solid;text-decoration-color:#000;text-transform:none;block-progression:tb;isolation:auto;mix-blend-mode:normal" fill="#2b4255" d="M-992.97 56.389a5.005 5.005 0 0 0-5.348 2.373 5.006 5.006 0 0 0 .83 6.103 5.005 5.005 0 0 0 6.123.668 5.003 5.003 0 0 0 2.265-5.248.5.5 0 1 0-.98.2 3.997 3.997 0 0 1-1.813 4.197c-1.563.969-3.58.75-4.898-.534a3.997 3.997 0 0 1-.664-4.882 3.998 3.998 0 0 1 4.277-1.899.5.5 0 1 0 .207-.978z" overflow="visible" transform="translate(1010 -46.357)"></path><path style="line-height:normal;text-indent:0;text-align:start;text-decoration-line:none;text-decoration-style:solid;text-decoration-color:#000;text-transform:none;block-progression:tb;isolation:auto;mix-blend-mode:normal" fill="#f05542" d="M-1001.998 65.697a.5.5 0 0 0-.266.09l-.537.367c-1.622-.327-3.37.055-4.629 1.313a.5.5 0 0 0 0 .002 5.118 5.118 0 0 0-1.32 4.943.5.5 0 0 0 .836.225l2.603-2.606 1.922.64.639 1.923-2.604 2.601a.5.5 0 0 0 .225.838 5.126 5.126 0 0 0 4.945-1.32c1.255-1.255 1.635-2.998 1.313-4.615l.432-.547a.5.5 0 1 0-.786-.62l-.525.667a.5.5 0 0 0-.09.437c.364 1.377.026 2.891-1.05 3.969-.783.78-1.842 1.062-2.919 1.062l1.985-1.982a.5.5 0 0 0 .12-.512l-.815-2.453a.5.5 0 0 0-.317-.316l-2.451-.817a.5.5 0 0 0-.512.121l-1.986 1.987c0-1.078.28-2.136 1.062-2.918 1.078-1.077 2.595-1.417 3.971-1.053a.5.5 0 0 0 .41-.07l.643-.44a.5.5 0 0 0-.299-.916z" overflow="visible" transform="translate(1010 -46.357)"></path><path style="line-height:normal;text-indent:0;text-align:start;text-decoration-line:none;text-decoration-style:solid;text-decoration-color:#000;text-transform:none;block-progression:tb;isolation:auto;mix-blend-mode:normal" fill="#2b4255" d="M-992.16 51.822a.5.5 0 0 0-.463.313l-.56 1.394a7.838 7.838 0 0 0-1.794.014l-.587-1.377a.5.5 0 0 0-.657-.264l-3.01 1.284a.5.5 0 0 0-.263.656l.588 1.379a7.837 7.837 0 0 0-1.252 1.281l-1.395-.56a.5.5 0 0 0-.65.277l-1.22 3.037a.5.5 0 0 0 .277.65l1.394.56a7.848 7.848 0 0 0 .012 1.794l-1.375.586a.5.5 0 0 0-.266.656l1.285 3.012a.5.5 0 0 0 .655.263l1.38-.59c.38.467.805.888 1.28 1.256l-.559 1.393a.5.5 0 0 0 .278.65l3.035 1.221a.5.5 0 0 0 .65-.277l.56-1.395c.598.065 1.198.06 1.794-.014l.588 1.377a.5.5 0 0 0 .656.264l3.01-1.283a.5.5 0 0 0 .263-.656l-.588-1.38a7.835 7.835 0 0 0 1.252-1.28l1.395.56a.5.5 0 0 0 .65-.277l1.221-3.037a.5.5 0 0 0-.277-.65l-1.395-.561a7.842 7.842 0 0 0-.012-1.793l1.375-.586a.5.5 0 0 0 .264-.657l-1.002-2.353a.5.5 0 1 0-.92.393l.807 1.892-1.215.52a.5.5 0 0 0-.297.547c.135.76.14 1.537.016 2.298a.5.5 0 0 0 .306.543l1.237.498-.848 2.11-1.232-.496a.5.5 0 0 0-.598.177 6.87 6.87 0 0 1-1.61 1.643.5.5 0 0 0-.165.602l.52 1.218-2.089.893-.52-1.217a.5.5 0 0 0-.546-.295c-.76.135-1.537.14-2.299.016a.5.5 0 0 0-.545.306l-.496 1.235-2.11-.848.497-1.232a.5.5 0 0 0-.18-.598 6.862 6.862 0 0 1-1.643-1.607.5.5 0 0 0-.6-.166l-1.218.52-.893-2.09 1.215-.518a.5.5 0 0 0 .297-.547 6.893 6.893 0 0 1-.016-2.3.5.5 0 0 0-.306-.544l-1.237-.496.85-2.11 1.23.495a.5.5 0 0 0 .598-.178 6.87 6.87 0 0 1 1.61-1.643.5.5 0 0 0 .165-.601l-.52-1.219 2.089-.892.52 1.216a.5.5 0 0 0 .546.297 6.862 6.862 0 0 1 2.299-.017.5.5 0 0 0 .545-.307l.496-1.234 1.978.795a.5.5 0 1 0 .374-.928l-2.442-.983a.5.5 0 0 0-.187-.035z" overflow="visible" transform="translate(1010 -46.357)"></path><path style="line-height:normal;text-indent:0;text-align:start;text-decoration-line:none;text-decoration-style:solid;text-decoration-color:#000;text-transform:none;block-progression:tb;isolation:auto;mix-blend-mode:normal" fill="#f05542" d="M-984.205 46.357a5.118 5.118 0 0 0-3.611 1.497c-1.247 1.246-1.621 2.973-1.31 4.582l-9.323 9.414a.5.5 0 1 0 .71.705l9.452-9.545a.5.5 0 0 0 .129-.48c-.364-1.378-.029-2.892 1.049-3.97a4.114 4.114 0 0 1 2.904-1.203c.046 0 .092.017.139.018l-2.11 2.11a.5.5 0 0 0-.12.51l.816 2.45a.5.5 0 0 0 .316.317l2.451.816a.5.5 0 0 0 .512-.119l1.986-1.986c0 1.077-.281 2.136-1.062 2.918-1.078 1.077-2.595 1.416-3.971 1.052a.5.5 0 0 0-.482.133l-9.54 9.662a.5.5 0 1 0 .711.701l9.407-9.527c1.608.31 3.335-.066 4.582-1.312a5.122 5.122 0 0 0 1.32-4.946.5.5 0 0 0-.836-.224l-2.603 2.603-1.922-.64-.639-1.92 2.604-2.604a.5.5 0 0 0-.225-.838 5.118 5.118 0 0 0-1.334-.174z" overflow="visible" transform="translate(1010 -46.357)"></path><path style="line-height:normal;text-indent:0;text-align:start;text-decoration-line:none;text-decoration-style:solid;text-decoration-color:#000;text-transform:none;block-progression:tb;isolation:auto;mix-blend-mode:normal" fill="#2b4255" d="M-997.875 58.508a.5.5 0 0 0-.443.254 5.006 5.006 0 0 0 .83 6.103 5.005 5.005 0 0 0 6.123.668.5.5 0 0 0-.528-.851c-1.563.969-3.58.75-4.898-.534a3.997 3.997 0 0 1-.664-4.882.5.5 0 0 0-.42-.758z" overflow="visible" transform="translate(1010 -46.357)"></path></g></svg>